# xmcd
#
# Track frame offsets: 
#        150
#        16339
#        27211
#        37833
#        49649
#        60740
#        80426
#        109293
#        149349
#        181470
#        203476
#        226215
#        241523
#        260142
#        274911
#        285546
#        308710
#        328242
#        338818
#
# Disc length: 4701 seconds
#
# Revision: 0
# Processed by: cddbd v1.5.2PL0 Copyright (c) Steve Scherf et al.
# Submitted via: ExactAudioCopy v0.90b4
#
DISCID=08125b13
DTITLE=Various Artist - The Cream of the Crop
DYEAR=1997
DGENRE=Blues
TTITLE0=Johnny Copeland - claim jumper
TTITLE1=Elmore James - madison blues
TTITLE2=Elmore James - done somebody wrong
TTITLE3=Little Walter - the toodle
TTITLE4=Screaming Jay Hawkins - I put spell on you
TTITLE5=Koko Taylor and Willie Dixon - insane asylum
TTITLE6=Roy Buchanan - five string blues
TTITLE7=James Cotton - black night
TTITLE8=Carey Bell - teardrops
TTITLE9=Johhny Copeland - it's my own tears
TTITLE10=Elmore James - something inside of me
TTITLE11=Sonny Boy Williamson - you killing me (on my feet)
TTITLE12=Junior wells - help me
TTITLE13=Sonny Boy Williamson - the key
TTITLE14=James Cotton - cotton crop blues
TTITLE15=Johnny B. Moore - why don't you by my mama
TTITLE16=Carey Bell - brand new deal
TTITLE17=Otis Spann - spann's stomp
TTITLE18=Willie Dixon - walking the blues
EXTD=
EXTT0=
EXTT1=
EXTT2=
EXTT3=
EXTT4=
EXTT5=
EXTT6=
EXTT7=
EXTT8=
EXTT9=
EXTT10=
EXTT11=
EXTT12=
EXTT13=
EXTT14=
EXTT15=
EXTT16=
EXTT17=
EXTT18=
PLAYORDER=
